<?xml version="1.0" encoding="UTF-8"?>
<svg id="Layer_1" xmlns="http://www.w3.org/2000/svg" viewBox="0 0 488.49 131.1">
  <defs>
    <style>
      .cls-1 {
        fill: #f5b80a;
      }

      .cls-2 {
        fill: #fff;
      }
    </style>
  </defs>
  <polygon class="cls-2" points="113.58 25.9 120.44 25.9 133.29 61.47 133.4 61.47 146.74 25.9 153.23 25.9 136 69.62 130.44 69.62 113.58 25.9"/>
  <path class="cls-2" d="M169.1,25.9h5.37l18.71,43.72h-6.91l-4.38-10.81h-20.82l-4.33,10.81h-6.91l19.27-43.72ZM179.71,53.63l-8.14-20.07h-.13l-8.28,20.07h16.55Z"/>
  <polygon class="cls-2" points="199.46 25.9 205.38 25.9 205.38 64.06 225.46 64.06 225.46 69.62 199.46 69.62 199.46 25.9"/>
  <path class="cls-2" d="M231.9,25.9h15.37c11.18,0,14.02,6.73,14.02,12.23s-2.84,12.23-14.02,12.23h-9.45v19.27h-5.92V25.9ZM237.82,45.17h7.78c4.7,0,9.39-1.12,9.39-7.04s-4.69-7.04-9.39-7.04h-7.78v14.08Z"/>
  <path class="cls-2" d="M278.78,25.9h5.38l18.7,43.72h-6.91l-4.38-10.81h-20.81l-4.32,10.81h-6.91l19.26-43.72ZM289.4,53.63l-8.16-20.07h-.12l-8.27,20.07h16.55Z"/>
  <path class="cls-2" d="M309.15,25.9h15.39c11.17,0,14.01,6.73,14.01,12.23s-4.14,10.81-10.74,11.55l12.4,19.95h-7.4l-11.11-19.27h-6.62v19.27h-5.93V25.9ZM315.08,45.17h7.78c4.69,0,9.38-1.12,9.38-7.04s-4.69-7.04-9.38-7.04h-7.78v14.08Z"/>
  <path class="cls-2" d="M363.54,25.9h5.38l18.71,43.72h-6.92l-4.39-10.81h-20.81l-4.31,10.81h-6.93l19.26-43.72ZM374.17,53.63l-8.16-20.07h-.12l-8.27,20.07h16.55Z"/>
  <rect class="cls-2" x="393.91" y="25.9" width="5.93" height="43.72"/>
  <path class="cls-2" d="M412.65,60.48c2.1,3.2,5.74,4.69,9.27,4.69,3.89,0,8.69-2.47,8.69-7.29,0-10.07-21.55-3.82-21.55-20.88,0-5.12,4.33-12.22,14.83-12.22,4.75,0,9.32.98,12.6,5l-4.83,4.39c-1.47-2.29-4.38-3.83-7.77-3.83-6.55,0-8.53,3.95-8.53,6.66,0,11.06,21.55,4.45,21.55,20.21,0,8.46-6.8,13.52-15.19,13.52-5.63,0-11-1.91-13.96-6.05l4.88-4.2Z"/>
  <path class="cls-2" d="M442.91,47.76c0-12.97,9.45-22.97,22.79-22.97s22.79,10,22.79,22.97-9.46,22.97-22.79,22.97-22.79-10.01-22.79-22.97M482.19,47.76c0-9.57-6.48-17.41-16.49-17.41s-16.49,7.84-16.49,17.41,6.48,17.41,16.49,17.41,16.49-7.84,16.49-17.41"/>
  <path class="cls-2" d="M146.37,115.3c0,2.03-.23,3.96-.69,5.8-.46,1.85-1.23,3.48-2.32,4.9-1.08,1.42-2.5,2.55-4.25,3.41-1.76.85-3.91,1.27-6.47,1.27s-4.71-.43-6.46-1.27c-1.76-.86-3.18-1.99-4.26-3.41-1.08-1.42-1.86-3.05-2.32-4.9-.46-1.84-.69-3.77-.69-5.8v-23.26h3.51v22.35c0,1.35.12,2.78.37,4.31.25,1.53.73,2.95,1.46,4.26.73,1.31,1.75,2.39,3.09,3.24,1.33.85,3.1,1.28,5.29,1.28s3.96-.43,5.3-1.28c1.33-.85,2.36-1.93,3.09-3.24.73-1.31,1.22-2.73,1.46-4.26.25-1.53.37-2.96.37-4.31v-22.35h3.51v23.26Z"/>
  <path class="cls-2" d="M132.64,131.1c-2.61,0-4.84-.44-6.65-1.32-1.81-.88-3.3-2.07-4.41-3.53-1.12-1.45-1.92-3.16-2.39-5.05-.47-1.87-.7-3.85-.7-5.9v-23.68h4.35v22.77c0,1.32.13,2.75.36,4.24.24,1.47.72,2.86,1.42,4.12.69,1.24,1.68,2.29,2.95,3.09,1.26.8,2.97,1.21,5.07,1.21s3.82-.41,5.07-1.21c1.27-.81,2.26-1.85,2.94-3.09.7-1.27,1.18-2.65,1.42-4.12.24-1.49.37-2.92.37-4.24v-22.77h4.35v23.68c0,2.05-.23,4.03-.7,5.9-.47,1.89-1.28,3.59-2.38,5.05-1.12,1.46-2.61,2.65-4.41,3.53-1.81.87-4.04,1.32-6.65,1.32M119.34,92.46v22.84c0,1.98.23,3.9.68,5.7.44,1.78,1.2,3.38,2.24,4.75,1.04,1.36,2.42,2.46,4.11,3.28,1.69.82,3.81,1.23,6.29,1.23s4.59-.41,6.28-1.23c1.69-.82,3.07-1.92,4.11-3.28,1.04-1.37,1.8-2.96,2.24-4.75.45-1.8.68-3.72.68-5.7v-22.84h-2.67v21.93c0,1.37-.13,2.84-.37,4.38-.26,1.57-.77,3.05-1.51,4.39-.76,1.36-1.85,2.51-3.23,3.4-1.4.89-3.26,1.35-5.52,1.35s-4.13-.45-5.52-1.35c-1.38-.88-2.47-2.03-3.23-3.4-.75-1.35-1.25-2.82-1.51-4.39-.25-1.54-.38-3.01-.38-4.38v-21.93h-2.67Z"/>
  <polygon class="cls-2" points="158.4 92.04 162.93 92.04 185.86 125.03 185.97 125.03 185.97 92.04 189.48 92.04 189.48 129.72 184.96 129.72 162.02 96.72 161.91 96.72 161.91 129.72 158.4 129.72 158.4 92.04"/>
  <path class="cls-2" d="M189.9,130.14h-5.16l-.13-.18-22.28-32.04v32.23h-4.35v-38.52h5.16l.13.18,22.28,32.05v-32.23h4.36v38.52ZM185.18,129.3h3.88v-36.84h-2.67v33h-.74l-.13-.18-22.81-32.82h-3.88v36.84h2.67v-33h.64l.23.18,22.82,32.82Z"/>
  <rect class="cls-2" x="202.2" y="92.04" width="3.51" height="37.68"/>
  <path class="cls-2" d="M206.13,130.14h-4.35v-38.52h4.35v38.52ZM202.62,129.3h2.67v-36.84h-2.67v36.84Z"/>
  <polygon class="cls-2" points="213.11 92.04 216.89 92.04 229.02 125.09 241.26 92.04 244.99 92.04 230.67 129.72 227.16 129.72 213.11 92.04"/>
  <path class="cls-2" d="M230.96,130.14h-4.1l-.1-.27-14.26-38.25h4.68l.1.28,11.74,31.98,11.94-32.26h4.62l-14.63,38.52ZM227.45,129.3h2.93l14-36.84h-2.82l-12.54,33.85-12.43-33.85h-2.88l13.74,36.84Z"/>
  <polygon class="cls-2" points="252.39 92.04 275.43 92.04 275.43 95.23 255.9 95.23 255.9 108.64 274.21 108.64 274.21 111.84 255.9 111.84 255.9 126.52 276.28 126.52 276.28 129.72 252.39 129.72 252.39 92.04"/>
  <path class="cls-2" d="M276.7,130.14h-24.73v-38.52h23.88v4.03h-19.53v12.57h18.31v4.03h-18.31v13.85h20.38v4.03ZM252.8,129.3h23.06v-2.35h-20.38v-15.53h18.31v-2.35h-18.31v-14.25h19.53v-2.35h-22.2v36.84Z"/>
  <path class="cls-2" d="M286.34,92.04h9.9c.5,0,1.17.02,2.02.06.85.03,1.77.14,2.76.32.99.18,2,.46,3.03.85,1.03.39,1.95.96,2.77,1.7.81.74,1.49,1.69,2.02,2.82.53,1.14.8,2.52.8,4.15,0,1.81-.31,3.3-.93,4.47-.62,1.17-1.4,2.12-2.34,2.84-.94.73-1.98,1.27-3.11,1.63-1.13.35-2.22.61-3.25.74l10.96,18.1h-3.99l-10.59-17.88h-6.54v17.88h-3.51v-37.68ZM289.85,108.64h7.45c1.85,0,3.35-.23,4.5-.69,1.15-.46,2.05-1.03,2.69-1.7.64-.67,1.07-1.4,1.3-2.18.23-.78.34-1.49.34-2.13s-.12-1.35-.34-2.13c-.23-.78-.67-1.51-1.3-2.18-.64-.68-1.54-1.24-2.69-1.7-1.15-.46-2.65-.69-4.5-.69h-7.45v13.41Z"/>
  <path class="cls-2" d="M311.72,130.14h-4.97l-.12-.21-10.47-17.67h-5.89v17.88h-4.36v-38.52h10.32c.5,0,1.18.02,2.04.05.87.04,1.82.15,2.82.32,1.01.18,2.06.48,3.11.87,1.07.41,2.05,1.01,2.9,1.78.86.78,1.57,1.77,2.12,2.95.55,1.19.83,2.64.83,4.33,0,1.87-.33,3.44-.98,4.67-.65,1.22-1.47,2.22-2.46,2.98-.98.76-2.07,1.32-3.24,1.69-.93.29-1.83.51-2.69.67l11.02,18.2ZM307.23,129.3h3.01l-10.91-18,.63-.09c1-.13,2.07-.38,3.18-.73,1.08-.34,2.08-.86,2.97-1.56.89-.68,1.64-1.6,2.23-2.71.59-1.1.88-2.54.88-4.27,0-1.56-.25-2.9-.76-3.97-.51-1.08-1.16-1.99-1.93-2.69-.77-.7-1.66-1.25-2.63-1.62-1-.38-2-.66-2.96-.83-.96-.17-1.87-.28-2.71-.31-.84-.03-1.51-.05-2-.05h-9.48v36.84h2.67v-17.88h7.21l.12.21,10.47,17.67ZM297.3,109.06h-7.87v-14.25h7.87c1.89,0,3.46.24,4.66.72,1.2.48,2.16,1.09,2.83,1.8.68.72,1.16,1.51,1.41,2.35.24.81.36,1.57.36,2.25s-.12,1.43-.36,2.25c-.25.84-.73,1.64-1.41,2.36-.68.72-1.63,1.32-2.83,1.8-1.2.48-2.76.72-4.66.72M290.27,108.22h7.03c1.78,0,3.25-.22,4.34-.67,1.09-.43,1.94-.97,2.54-1.6.59-.62,1-1.3,1.21-2.01.21-.74.32-1.41.32-2.01s-.11-1.27-.33-2.01c-.21-.71-.61-1.39-1.21-2.01-.6-.63-1.45-1.17-2.54-1.6-1.1-.44-2.56-.66-4.34-.66h-7.03v12.57Z"/>
  <path class="cls-2" d="M321.31,122.74c.92,1.6,2.12,2.78,3.59,3.57,1.47.78,3.15,1.17,5.03,1.17,1.17,0,2.27-.18,3.3-.53,1.03-.35,1.92-.85,2.69-1.49.76-.64,1.36-1.41,1.81-2.32.44-.9.67-1.93.67-3.06,0-1.31-.27-2.39-.82-3.24-.55-.85-1.29-1.55-2.21-2.1-.92-.55-1.96-1.02-3.11-1.41-1.15-.39-2.34-.78-3.57-1.17-1.23-.39-2.41-.84-3.56-1.33-1.15-.5-2.19-1.14-3.11-1.94-.93-.8-1.66-1.8-2.21-3.01-.55-1.21-.82-2.7-.82-4.47,0-1.67.32-3.15.98-4.44.66-1.29,1.54-2.38,2.66-3.25,1.12-.87,2.41-1.52,3.86-1.97,1.46-.45,2.98-.67,4.58-.67,2.06,0,3.96.36,5.72,1.09,1.75.73,3.27,1.94,4.55,3.65l-3.03,2.18c-.89-1.24-1.92-2.17-3.11-2.79-1.19-.62-2.6-.93-4.23-.93-1.14,0-2.21.15-3.24.45-1.03.3-1.92.74-2.68,1.33-.77.59-1.37,1.32-1.84,2.21-.46.89-.69,1.93-.69,3.14,0,1.88.48,3.33,1.44,4.34.96,1.01,2.16,1.81,3.59,2.4,1.44.58,3,1.1,4.68,1.54s3.25,1.04,4.68,1.78c1.44.74,2.64,1.78,3.59,3.11.96,1.33,1.44,3.17,1.44,5.51,0,1.7-.32,3.21-.96,4.52-.64,1.31-1.5,2.42-2.58,3.32-1.08.91-2.34,1.59-3.75,2.05-1.42.46-2.89.69-4.42.69-2.48,0-4.77-.44-6.87-1.3-2.09-.87-3.89-2.33-5.37-4.39l3.36-2.24Z"/>
  <path class="cls-2" d="M330.19,131.1c-2.53,0-4.89-.45-7.02-1.34-2.16-.89-4.03-2.42-5.56-4.53l-.26-.35,4.09-2.73.23.39c.88,1.52,2.03,2.66,3.42,3.4,1.41.74,3.03,1.12,4.83,1.12,1.12,0,2.18-.17,3.16-.51.98-.34,1.83-.81,2.56-1.42.71-.6,1.28-1.33,1.7-2.18.41-.84.62-1.81.62-2.88,0-1.22-.25-2.24-.76-3.02-.51-.79-1.2-1.45-2.07-1.97-.89-.53-1.91-.99-3.04-1.37-1.15-.39-2.33-.78-3.55-1.17-1.24-.39-2.45-.85-3.6-1.34-1.19-.51-2.27-1.19-3.22-2.01-.97-.84-1.75-1.89-2.32-3.15-.57-1.25-.86-2.82-.86-4.65,0-1.73.35-3.28,1.03-4.63.68-1.34,1.62-2.48,2.78-3.39,1.15-.9,2.49-1.58,3.99-2.04,1.49-.45,3.07-.68,4.7-.68,2.1,0,4.08.38,5.88,1.12,1.82.76,3.41,2.02,4.73,3.78l.26.34-3.72,2.68-.25-.34c-.84-1.18-1.84-2.08-2.96-2.66-1.12-.58-2.48-.88-4.04-.88-1.09,0-2.15.15-3.13.43-.97.28-1.83.71-2.55,1.26-.71.55-1.29,1.24-1.72,2.07-.42.82-.64,1.81-.64,2.94,0,1.76.44,3.12,1.32,4.05.91.97,2.07,1.74,3.45,2.3,1.42.58,2.98,1.09,4.63,1.52,1.71.45,3.31,1.06,4.77,1.82,1.49.77,2.75,1.87,3.74,3.24,1.01,1.4,1.52,3.33,1.52,5.75,0,1.76-.33,3.35-1,4.71-.67,1.36-1.57,2.53-2.69,3.46-1.12.94-2.43,1.65-3.89,2.13-1.46.47-2.99.71-4.55.71M318.55,125.08c1.39,1.81,3.04,3.12,4.93,3.9,2.04.84,4.29,1.27,6.7,1.27,1.47,0,2.92-.22,4.29-.67,1.36-.44,2.57-1.1,3.61-1.97,1.03-.86,1.86-1.94,2.47-3.19.61-1.25.91-2.71.91-4.34,0-2.24-.45-4.01-1.36-5.26-.91-1.27-2.07-2.28-3.45-2.99-1.4-.73-2.95-1.32-4.59-1.75-1.69-.44-3.29-.97-4.74-1.56-1.49-.6-2.74-1.44-3.74-2.49-1.03-1.09-1.55-2.64-1.55-4.63,0-1.27.25-2.39.74-3.33.49-.94,1.15-1.73,1.95-2.35.8-.61,1.75-1.09,2.83-1.4,1.06-.31,2.19-.47,3.36-.47,1.7,0,3.19.33,4.43.98,1.13.59,2.14,1.46,3.01,2.58l2.35-1.69c-1.17-1.46-2.55-2.53-4.11-3.17-1.7-.7-3.57-1.06-5.56-1.06-1.55,0-3.05.22-4.46.65-1.4.43-2.65,1.07-3.72,1.9-1.06.83-1.92,1.87-2.54,3.11-.62,1.23-.94,2.66-.94,4.25,0,1.71.26,3.15.79,4.3.52,1.14,1.23,2.11,2.1,2.86.88.77,1.89,1.4,3,1.88,1.13.49,2.31.93,3.52,1.32,1.23.39,2.42.78,3.57,1.17,1.19.4,2.26.89,3.2,1.45.97.59,1.77,1.34,2.35,2.24.59.92.89,2.09.89,3.47,0,1.19-.24,2.28-.71,3.25-.47.95-1.11,1.78-1.91,2.45-.8.67-1.75,1.2-2.82,1.57-1.07.37-2.22.55-3.44.55-1.94,0-3.7-.41-5.23-1.22-1.42-.75-2.6-1.87-3.53-3.35l-2.62,1.75Z"/>
  <rect class="cls-2" x="352.28" y="92.04" width="3.51" height="37.68"/>
  <path class="cls-2" d="M356.21,130.14h-4.35v-38.52h4.35v38.52ZM352.7,129.3h2.67v-36.84h-2.67v36.84Z"/>
  <polygon class="cls-2" points="376.86 95.23 363.99 95.23 363.99 92.04 393.26 92.04 393.26 95.23 380.38 95.23 380.38 129.72 376.86 129.72 376.86 95.23"/>
  <path class="cls-2" d="M380.8,130.14h-4.35v-34.49h-12.88v-4.03h30.12v4.03h-12.88v34.49ZM377.29,129.3h2.67v-34.49h12.88v-2.35h-28.43v2.35h12.88v34.49Z"/>
  <polygon class="cls-2" points="409.81 113.48 395.97 92.04 400.18 92.04 411.56 109.92 423.22 92.04 427.16 92.04 413.32 113.48 413.32 129.72 409.81 129.72 409.81 113.48"/>
  <path class="cls-2" d="M413.74,130.14h-4.35v-16.53l-14.19-21.99h5.2l.13.2,11.03,17.33,11.43-17.53h4.94l-14.19,21.99v16.53ZM410.23,129.3h2.67v-15.93l.06-.11,13.42-20.8h-2.94l-11.89,18.24-11.62-18.24h-3.2l13.49,20.9v15.93Z"/>
  <g>
    <path class="cls-2" d="M62.44,26.61c.27,2.51.34,5.07.18,7.64-.05.82-.13,1.65-.22,2.47-.9,8.09-3.87,16.39-9.12,25.54-1.48,2.55-3.11,5.16-4.95,7.85l-.98,1.44-.17.26-.37.51c-.74,1.05-1.45,2.08-2.11,3.05-5.23,7.68-8.49,13.61-10,18.14-.36,1.1-.53,1.67-.78,2.82-.18.96-.31,1.57-.43,2.51-.12.72-.23,1.94-.29,2.77.75,1.91,1.46,3.7,2.09,5.34.63,1.59,1.18,3.03,1.69,4.3h0c-1.12-.81-2.17-1.64-3.22-2.48-12.87-10.36-21.92-22.99-27.3-32.07-.1-.16-.2-.32-.29-.48,0,0-.01-.03-.02-.03v-41.59l6.26,15.54,7,17.43v.03c.52-2.65,1.26-5.36,2.29-8.21.94-2.6,2.06-5.15,3.41-7.81.46-.92.94-1.82,1.43-2.72.3-.56.62-1.12.94-1.67l.21-.36c.42-.74.84-1.45,1.26-2.15.08-.14.22-.38.36-.62l.12-.2h0c.22-.37.44-.73.67-1.1.57-.94,1.16-1.88,1.73-2.82.23-.37.45-.73.68-1.1l-4.67-11.84c-10.38-.73-19.87-2.2-27.83-4.22v55.13l.85,1.45c1.28,2.18,2.76,4.56,4.44,7.05,0,0,0,.02,0,.03,5.56,8.25,13.31,17.83,23.48,26.24.16.13.31.27.49.41.1.09.22.18.34.27.37.29.73.58,1.11.87.88.68,1.77,1.37,2.69,2.05.03.02.06.04.09.07.07.04.12.09.19.13,1.08.78,2.17,1.56,3.31,2.32,1.88,1.27,3.86,2.51,5.9,3.7h.01c2.06-1.19,4.03-2.42,5.92-3.7,1.13-.76,2.22-1.53,3.31-2.32,1.53-1.11,2.99-2.24,4.42-3.4,13.51-11.04,22.83-24.23,28.41-33.73l.84-1.45V22.75c-6.8,1.73-14.71,3.05-23.34,3.86M79.63,76.21c-5.78,9.85-15.97,24.1-30.8,35.04l30.8-76.61v41.58Z"/>
    <path class="cls-1" d="M57.68,27.03c0-.1,0-.19-.02-.28-.08-.63-.17-1.24-.27-1.86-.09-.51-.19-1.02-.3-1.53h0c-.02-.1-.03-.19-.06-.28-.04-.24-.09-.48-.15-.72-.04-.15-.07-.3-.1-.45-.47-1.87-1.08-3.75-1.84-5.62C51.06,7,42.91,0,42.91,0c1.97,3.51,3.09,6.91,3.57,10.21.92,6.15-.42,11.91-2.7,17.28-.05.13-.11.26-.17.39-2.37,5.47-5.75,10.6-9.08,16.07-.23.36-.44.71-.65,1.07-.03.04-.05.08-.08.12-.14.23-.28.46-.4.69-.41.69-.83,1.39-1.24,2.1-.37.66-.76,1.33-1.13,2.01-.48.87-.94,1.75-1.4,2.65-1.21,2.4-2.32,4.89-3.29,7.55-1.1,3.05-1.99,6.24-2.5,9.6-.2,1.27-.3,2.57-.37,3.88-.02.39-.06.77-.06,1.17-.02.68-.02,1.36,0,2.05,0,.25.03.51.04.76.02.62.05,1.26.1,1.9.65,7.04,3.32,12.89,5.67,16.24.17-1.11.47-2.36.95-3.78,1.46-4.4,4.54-10.43,10.57-19.31.69-1.01,1.42-2.04,2.18-3.12.17-.25.34-.49.53-.75l.97-1.41c7.44-10.97,12.76-22.1,13.46-33.45.14-2.3.08-4.61-.19-6.92"/>
  </g>
</svg>